<svg id="visual" viewBox="0 0 1920 1080" width="1920" height="1080" xmlns="http://www.w3.org/2000/svg" xmlns:xlink="http://www.w3.org/1999/xlink" version="1.1"><rect x="0" y="0" width="1920" height="1080" fill="#90e0ef"></rect><path d="M0 301L53.3 296.8C106.7 292.7 213.3 284.3 320 332C426.7 379.7 533.3 483.3 640 492C746.7 500.7 853.3 414.3 960 390.8C1066.7 367.3 1173.3 406.7 1280 414.8C1386.7 423 1493.3 400 1600 385C1706.7 370 1813.3 363 1866.7 359.5L1920 356L1920 1081L1866.7 1081C1813.3 1081 1706.7 1081 1600 1081C1493.3 1081 1386.7 1081 1280 1081C1173.3 1081 1066.7 1081 960 1081C853.3 1081 746.7 1081 640 1081C533.3 1081 426.7 1081 320 1081C213.3 1081 106.7 1081 53.3 1081L0 1081Z" fill="#00b4d8"></path><path d="M0 810L53.3 790.5C106.7 771 213.3 732 320 714.5C426.7 697 533.3 701 640 700.3C746.7 699.7 853.3 694.3 960 706.3C1066.7 718.3 1173.3 747.7 1280 783.2C1386.7 818.7 1493.3 860.3 1600 841C1706.7 821.7 1813.3 741.3 1866.7 701.2L1920 661L1920 1081L1866.7 1081C1813.3 1081 1706.7 1081 1600 1081C1493.3 1081 1386.7 1081 1280 1081C1173.3 1081 1066.7 1081 960 1081C853.3 1081 746.7 1081 640 1081C533.3 1081 426.7 1081 320 1081C213.3 1081 106.7 1081 53.3 1081L0 1081Z" fill="#0077b6"></path></svg>