<svg id="visual" viewBox="0 0 960 540" width="960" height="540" xmlns="http://www.w3.org/2000/svg" xmlns:xlink="http://www.w3.org/1999/xlink" version="1.1"><rect x="0" y="0" width="960" height="540" fill="#121212"></rect><defs><linearGradient id="grad1_0" x1="43.8%" y1="0%" x2="100%" y2="100%"><stop offset="14.444444444444446%" stop-color="#121212" stop-opacity="1"></stop><stop offset="85.55555555555554%" stop-color="#121212" stop-opacity="1"></stop></linearGradient></defs><defs><linearGradient id="grad2_0" x1="0%" y1="0%" x2="56.3%" y2="100%"><stop offset="14.444444444444446%" stop-color="#121212" stop-opacity="1"></stop><stop offset="85.55555555555554%" stop-color="#121212" stop-opacity="1"></stop></linearGradient></defs><g transform="translate(960, 0)"><path d="M0 378C-30.6 380.9 -61.2 383.9 -84.1 368.5C-107 353.2 -122.3 319.5 -148 307.2C-173.6 295 -209.7 304.2 -233.2 292.4C-256.6 280.6 -267.5 247.9 -276 220.1C-284.5 192.3 -290.7 169.4 -308.1 148.4C-325.5 127.4 -354 108.3 -367.5 83.9C-381.1 59.5 -379.5 29.7 -378 0L0 0Z" fill="#ba6dec"></path></g><g transform="translate(0, 540)"><path d="M0 -378C28.6 -377.3 57.2 -376.6 84.1 -368.5C111 -360.5 136.2 -345.2 157.1 -326.2C177.9 -307.1 194.3 -284.4 212 -265.8C229.7 -247.2 248.6 -232.6 272.1 -217C295.5 -201.3 323.5 -184.5 333.4 -160.5C343.2 -136.6 334.9 -105.4 339.3 -77.4C343.7 -49.5 360.8 -24.7 378 0L0 0Z" fill="#ba6dec"></path></g></svg>